<?xml version="1.0" encoding="UTF-8" standalone="no"?>
<svg
   xmlns:dc="http://purl.org/dc/elements/1.1/"
   xmlns:cc="http://creativecommons.org/ns#"
   xmlns:rdf="http://www.w3.org/1999/02/22-rdf-syntax-ns#"
   xmlns:svg="http://www.w3.org/2000/svg"
   xmlns="http://www.w3.org/2000/svg"
   xmlns:sodipodi="http://sodipodi.sourceforge.net/DTD/sodipodi-0.dtd"
   xmlns:inkscape="http://www.inkscape.org/namespaces/inkscape"
   viewBox="0 0 512 512"
   style="height: 100%; width: 100%;"
   version="1.1"
   id="svg8"
   sodipodi:docname="logo.svg"
   inkscape:version="0.92.2 2405546, 2018-03-11">
  <metadata
     id="metadata14">
    <rdf:RDF>
      <cc:Work
         rdf:about="">
        <dc:format>image/svg+xml</dc:format>
        <dc:type
           rdf:resource="http://purl.org/dc/dcmitype/StillImage" />
        <dc:title />
      </cc:Work>
    </rdf:RDF>
  </metadata>
  <defs
     id="defs12" />
  <sodipodi:namedview
     pagecolor="#888888"
     bordercolor="#666666"
     borderopacity="1"
     objecttolerance="10"
     gridtolerance="10"
     guidetolerance="10"
     inkscape:pageopacity="0"
     inkscape:pageshadow="2"
     inkscape:window-width="1576"
     inkscape:window-height="1704"
     id="namedview10"
     showgrid="false"
     inkscape:zoom="1.84375"
     inkscape:cx="205.25484"
     inkscape:cy="250.29428"
     inkscape:window-x="12"
     inkscape:window-y="76"
     inkscape:window-maximized="0"
     inkscape:current-layer="svg8" />
  <path
     style="fill:#f9f9f9;fill-opacity:1"
     d="M 234.61523 16.941406 L 234.61523 16.943359 C 196.50923 17.203359 158.75527 29.413453 125.19727 54.189453 C 233.36127 48.811453 288.26177 102.11758 324.88477 148.26758 L 327.11133 151.07031 L 326.57227 154.61328 C 324.41927 168.77328 326.78233 183.58383 334.48633 196.92383 C 352.52933 228.17583 392.31631 238.83792 423.57031 220.79492 C 454.82431 202.75192 465.48441 162.96484 447.44141 131.71484 C 437.80541 115.02484 421.46177 104.46883 403.75977 100.79883 L 401.01953 100.22852 L 399.19336 98.107422 C 353.09336 44.500422 293.46023 16.543406 234.61523 16.941406 z M 391.44727 120.66406 L 391.44922 120.66602 C 415.92922 120.66602 435.57227 140.31106 435.57227 164.78906 C 435.57227 189.26606 415.92727 208.91016 391.44727 208.91016 C 366.96727 208.91016 347.32227 189.26511 347.32227 164.78711 C 347.32227 140.30711 366.96827 120.66406 391.44727 120.66406 z "
     id="path33" class="fillA" />
  <path
     style="fill:#ffffff;fill-opacity:1"
     d="m 142.293,70.023 c -10.028,-0.016 -20.632,0.522 -31.844,1.663 -11.678,8.884 -22.494,18.84 -32.298,29.728 6.523,-1.695 13.252,-2.6 20.03,-2.654 0.904,-0.008 1.81,0 2.714,0.023 13.168,0.33 26.43,3.852 38.606,10.88 8.91,5.144 16.464,11.743 22.578,19.31 23.693,-18.095 52.583,-29.727 84.045,-32.26 -26.31,-15.876 -59.523,-26.618 -103.832,-26.69 z"
     id="path31" class="fillA"/>
  <path
     style="fill:#ffffff;fill-opacity:"
     d="M 98.236328 115.13281 C 75.874328 115.28281 54.213313 126.96334 42.195312 147.77734 C 32.559312 164.46734 31.587766 183.89745 37.259766 201.06445 L 38.140625 203.72461 L 37.212891 206.36328 C -1.3021094 316.29928 38.896687 423.18752 136.17969 465.60352 C 77.435688 374.62052 96.150547 300.42286 117.81055 245.63086 L 119.125 242.30078 L 122.46094 240.99609 C 135.80094 235.78009 147.44744 226.32828 155.14844 212.98828 C 173.19244 181.73828 162.5343 141.9512 131.2793 123.9082 C 121.5143 118.2702 110.91234 115.4343 100.40234 115.1543 C 99.680344 115.1343 98.958328 115.12877 98.236328 115.13477 L 98.236328 115.13281 z M 98.103516 137.06445 L 98.105469 137.06445 C 122.58456 137.0655 142.22852 156.70915 142.22852 181.1875 C 142.22852 205.6655 122.58352 225.31055 98.103516 225.31055 C 73.623516 225.31055 53.980469 205.6665 53.980469 181.1875 C 53.980469 156.71015 73.625429 137.0655 98.103516 137.06445 z "
     id="path29" class="fillC"/>
  <path
     style="fill:#ffffff;fill-opacity:1"
     d="m 471.24,178.86 c -4.15,22.802 -17.875,43.723 -39.447,56.177 -4.307,2.487 -8.75,4.534 -13.277,6.156 0.463,4.96 0.71,9.982 0.71,15.063 0,30.15 -8.34,58.35 -22.835,82.43 32.152,-17.625 62.903,-47.413 87.657,-100.23 -1.67,-20.753 -6.06,-40.734 -12.807,-59.597 z"
     id="path23" class="fillB"/>
  <path
     style="fill:#ffffff;fill-opacity:1"
     d="M 494.11328 254.98242 C 494.11343 254.98371 494.11314 254.98504 494.11328 254.98633 C 494.11395 254.98502 494.11456 254.98373 494.11523 254.98242 L 494.11328 254.98242 z M 494.11328 254.98633 C 444.6873 351.34098 371.07609 372.23121 312.79688 380.87109 L 309.25195 381.39844 L 306.45508 379.16211 C 295.26808 370.21811 281.25847 364.85742 265.85547 364.85742 C 229.76547 364.85742 200.63867 393.98141 200.63867 430.06641 C 200.63867 466.15441 229.76452 495.2793 265.85352 495.2793 C 285.12352 495.2793 302.4397 486.40125 314.4707 472.90625 L 316.33398 470.81641 L 319.08398 470.30078 C 433.54958 448.68805 506.01607 360.43561 494.11328 254.98633 z M 265.72852 386.67188 C 290.20852 386.67188 309.85352 406.31692 309.85352 430.79492 C 309.85352 455.27292 290.20852 474.91797 265.72852 474.91797 C 241.24852 474.91797 221.60352 455.27292 221.60352 430.79492 C 221.60352 406.31692 241.24952 386.67188 265.72852 386.67188 z "
     id="path21" class="fillB"/>
  <path
     style="fill:#ffffff;fill-opacity:1"
     d="m 113.622,323.02 c -4.68,42.24 4.264,91.172 47.035,149.293 14.683,6.217 30.14,10.958 46.18,14.072 -14.007,-14.67 -22.645,-34.508 -22.645,-56.317 0,-10.406 1.985,-20.356 5.56,-29.52 -33.534,-16.157 -60.566,-43.662 -76.13,-77.528 z"
     id="path19" class="fillC"/>
  <g
     id="g33"
     transform="translate(622.64407,201.76271)">
    <g
       id="g20"
       class="">
      <path
         id="path18"
         class="fillD"
         d="m -337.16012,-22.6405 c -3.23482,0.0735 -6.25522,1.48018 -10.37718,5.87844 l -4.02086,4.269 -4.17403,-4.11706 c -4.5257,-4.46014 -8.09687,-5.69158 -11.71706,-5.53229 -3.61957,0.15929 -7.8757,2.06282 -12.63604,5.91582 l -3.8095,3.08166 -3.61835,-3.29242 c -5.45265,-4.93311 -10.09965,-6.39491 -14.5506,-6.16516 -3.23973,0.16787 -6.60137,1.38828 -9.95567,3.52277 l 25.09932,45.14545 c 9.468,5.79083 28.81508,7.96882 42.12014,1.26391 l 24.25753,-44.93469 c -4.60105,-1.87596 -8.73648,-3.7997 -12.31072,-4.53734 -1.29393,-0.26773 -2.49474,-0.46317 -3.65756,-0.49809 -0.21688,-0.006 -0.43499,-0.005 -0.64942,0 z m -55.12072,58.93145 c -11.04926,7.80647 -19.92114,21.27021 -23.35753,40.98979 -3.32979,19.11244 1.91639,32.0205 11.20059,40.81764 9.28481,8.79775 23.22091,13.31731 37.37205,13.13352 14.15237,-0.1838 28.26553,-5.09118 37.75497,-14.0519 9.49005,-8.96132 14.85692,-21.70397 11.81325,-39.93786 -3.14722,-18.84348 -11.27289,-31.94882 -21.55939,-39.88027 -17.44969,9.22416 -39.26762,7.26366 -53.22394,-1.07215 z"
         inkscape:connector-curvature="0"
         style="fill:#ffffff;fill-opacity:1;stroke-width:0.61265665"
         sodipodi:nodetypes="ccccccccccccccccccccccccc" />
    </g>
  </g>
</svg>
